<?xml version="1.0" standalone="no"?>
<!DOCTYPE svg PUBLIC "-//W3C//DTD SVG 20010904//EN"
 "http://www.w3.org/TR/2001/REC-SVG-20010904/DTD/svg10.dtd">
<svg version="1.0" xmlns="http://www.w3.org/2000/svg"
 width="260.000000pt" height="260.000000pt" viewBox="0 0 260.000000 260.000000"
 preserveAspectRatio="xMidYMid meet">
<metadata>
Created by potrace 1.11, written by Peter Selinger 2001-2013
</metadata>
<g transform="translate(0.000000,260.000000) scale(0.100000,-0.100000)"
fill="#000000" stroke="none">
<path d="M575 1851 c-77 -32 -156 -65 -176 -73 -31 -14 -40 -27 -73 -103 -36
-85 -37 -89 -23 -124 76 -189 311 -761 320 -780 8 -16 39 -35 99 -61 l87 -37
133 54 c73 30 153 63 178 72 43 18 47 23 84 109 l39 90 -63 153 c-51 126 -60
155 -48 162 7 5 234 98 503 206 487 195 490 197 508 234 23 45 16 85 -19 121
-52 51 -45 53 -584 -163 -275 -111 -501 -201 -503 -201 -2 0 -34 73 -71 163
l-67 162 -77 32 c-42 18 -84 35 -92 37 -8 3 -78 -21 -155 -53z m1536 -4 c10
-12 18 -32 19 -45 0 -27 -17 -62 -29 -62 -8 0 -61 120 -61 136 0 14 54 -9 71
-29z m-85 -42 c13 -31 24 -61 24 -68 0 -8 -63 -39 -142 -71 -572 -231 -792
-317 -802 -313 -15 6 -60 120 -49 125 4 2 217 88 473 192 256 103 466 189 468
189 2 1 14 -24 28 -54z m-1246 21 l45 -24 -35 -16 c-89 -40 -404 -166 -416
-166 -10 0 -8 13 9 51 l22 52 150 62 c83 35 157 63 165 63 8 1 35 -9 60 -22z
m167 -289 c45 -111 107 -263 137 -337 31 -74 57 -141 59 -148 1 -8 -81 -47
-227 -107 -126 -52 -234 -95 -240 -95 -6 0 -30 46 -53 103 -23 56 -85 207
-137 335 -53 128 -96 239 -96 246 0 9 444 203 470 205 3 0 42 -90 87 -202z
m223 -571 c0 -2 -11 -28 -24 -56 l-24 -52 -156 -63 -156 -63 -50 21 c-27 11
-50 23 -50 26 0 4 37 21 83 40 45 19 145 60 222 92 138 57 155 63 155 55z"/>
<path d="M801 1480 c-12 -78 -21 -143 -19 -145 10 -9 88 -15 88 -7 0 11 -40
274 -43 285 -1 5 -13 -55 -26 -133z"/>
<path d="M670 1330 c0 -13 39 -257 44 -274 1 -5 12 53 25 129 12 75 21 139 19
141 -2 2 -23 6 -46 10 -31 5 -42 3 -42 -6z"/>
</g>
</svg>
